<?xml version="1.0" encoding="UTF-8" standalone="no"?>
<!DOCTYPE svg PUBLIC "-//W3C//DTD SVG 1.1//EN" "http://www.w3.org/Graphics/SVG/1.1/DTD/svg11.dtd">
<svg width="100%" height="100%" viewBox="0 0 174 186" version="1.1" xmlns="http://www.w3.org/2000/svg" xmlns:xlink="http://www.w3.org/1999/xlink" xml:space="preserve" xmlns:serif="http://www.serif.com/" style="fill-rule:evenodd;clip-rule:evenodd;stroke-linejoin:round;stroke-miterlimit:1.41421;">
    <g transform="matrix(10.613,0,0,10.613,86.5658,92.8039)">
        <g id="diaspora" transform="matrix(1,0,0,1,-8,-8)">
            <clipPath id="_clip1">
                <rect x="0" y="0" width="16" height="16"/>
            </clipPath>
            <g clip-path="url(#_clip1)">
                <path d="M10.172,14.618L8.618,12.448C8.203,11.868 7.866,11.416 7.848,11.416C7.83,11.416 7.178,12.293 6.304,13.492C5.472,14.634 4.784,15.568 4.774,15.568C4.752,15.568 1.776,13.472 1.768,13.45C1.764,13.44 2.438,12.452 3.263,11.256C4.089,10.059 4.765,9.061 4.765,9.038C4.765,9.001 4.497,8.908 2.398,8.208L0.002,7.408C-0.018,7.398 0.105,6.984 0.53,5.642C0.836,4.678 1.093,3.882 1.1,3.872C1.11,3.862 2.24,4.222 3.615,4.676C4.99,5.128 6.125,5.498 6.14,5.498C6.154,5.498 6.17,5.478 6.175,5.451C6.181,5.431 6.193,4.261 6.202,2.851C6.212,1.451 6.226,0.291 6.235,0.271C6.248,0.251 6.635,0.251 8.052,0.251C9.042,0.251 9.862,0.261 9.875,0.271C9.891,0.281 9.918,1.061 9.965,2.791C10.038,5.641 10.04,5.681 10.085,5.681C10.103,5.681 11.192,5.321 12.505,4.871C13.82,4.431 14.901,4.071 14.909,4.081C14.929,4.111 16.009,7.621 15.999,7.631C15.989,7.641 14.889,8.021 13.559,8.471C11.719,9.091 11.129,9.301 11.129,9.331C11.119,9.351 11.749,10.301 12.559,11.471C13.349,12.631 13.989,13.581 13.989,13.591C13.979,13.621 11.029,15.791 10.999,15.791C10.989,15.791 10.609,15.281 10.169,14.661L10.172,14.618Z" style="fill-rule:nonzero;"/>
            </g>
        </g>
    </g>
</svg>
